<svg width="91" height="92" fill="none" xmlns="http://www.w3.org/2000/svg"><path d="M76.426 57.372a36.831 36.831 0 006.086-20.32C82.512 16.621 65.89 0 45.459 0 25.03 0 8.41 16.621 8.41 37.051a36.837 36.837 0 006.084 20.32L0 78.509l16.584-3.092L19.677 92l13.667-19.933a36.887 36.887 0 0012.115 2.036c4.242 0 8.318-.718 12.116-2.036L71.243 92l3.092-16.584 16.584 3.092-14.493-21.136zm-53.82 20.765l-1.686-9.046-9.045 1.688 6.104-8.903a37.296 37.296 0 0010.298 7.994l-5.67 8.267zM13.83 37.051c0-17.44 14.19-31.629 31.63-31.629 17.44 0 31.63 14.19 31.63 31.63 0 17.44-14.19 31.63-31.63 31.63-17.44 0-31.63-14.19-31.63-31.63zM70 69.091l-1.687 9.046-5.67-8.267a37.296 37.296 0 0010.3-7.994l6.103 8.902L70 69.091z" fill="#fff" fill-opacity=".48"/><path d="M38.65 44.025l-8.816-8.815L26 39.044l12.65 12.65 25.86-25.86L60.676 22 38.65 44.025z" fill="#fff" fill-opacity=".48"/></svg>