<svg width="93" height="72" fill="none" xmlns="http://www.w3.org/2000/svg"><path d="M56.534 0C36.941 0 21 15.94 21 35.534s15.94 35.534 35.534 35.534 35.534-15.94 35.534-35.534C92.068 15.941 76.128 0 56.534 0zm0 65.678c-16.621 0-30.143-13.523-30.143-30.144S39.913 5.391 56.534 5.391c16.621 0 30.144 13.522 30.144 30.143 0 16.621-13.523 30.144-30.144 30.144z" fill="#fff" fill-opacity=".48"/><path d="M58.39 37.411V20H53v20.26l13.891 9.467 3.036-4.454-11.536-7.862zm-42.849-3.934H0v5.39h15.541v-5.39zM15.566 23H5v5.39h10.566V23zm0 21H5v5.39h10.566V44z" fill="#fff" fill-opacity=".48"/></svg>