<svg width="80" height="90" fill="none" xmlns="http://www.w3.org/2000/svg"><path d="M55.803.797H5.99a4.82 4.82 0 00-4.803 4.825V84.34a4.82 4.82 0 004.803 4.825h49.812a1.078 1.078 0 000-2.156H5.99a2.661 2.661 0 01-2.647-2.67V5.623a2.661 2.661 0 012.647-2.67h49.812a2.661 2.661 0 012.647 2.67v42.783a1.078 1.078 0 002.156 0V5.622A4.82 4.82 0 0055.803.797z" fill="#fff" fill-opacity=".48"/><path d="M55.803.547h0a5.07 5.07 0 015.053 5.076M55.803.547l4.803 5.075M55.803.547H5.99A5.07 5.07 0 00.938 5.623M55.803.547L.938 5.623m59.918 0h-.25m.25 0v0h-.25m.25 0v42.783a1.328 1.328 0 01-2.656 0V5.622v0a2.411 2.411 0 00-2.398-2.419m4.804 2.42v42.783a1.078 1.078 0 01-2.156 0V5.622a2.661 2.661 0 00-2.647-2.669m0 .25h0v-.25m0 .25H5.99m49.811 0s0 0 0 0v-.25m0 0H5.992M3.344 84.34a2.661 2.661 0 002.647 2.67m-2.647-2.67L55.803.797H5.99a4.82 4.82 0 00-4.803 4.825M3.344 84.34V5.622A2.661 2.661 0 015.99 2.953M3.344 84.34L5.99 3.203m0 83.805h49.812a1.078 1.078 0 110 2.156H5.99a4.82 4.82 0 01-4.803-4.825m4.803 2.67v-.25h.001l-.001.25zm-4.803-2.67V5.622m0 78.717h-.25v0V5.623m.25 78.716L.938 5.623m.25 0h-.25v0m.25 0h-.25s0 0 0 0m5.053-2.42h0v-.25m0 .25h.001l-.001-.25" stroke="#fff" stroke-opacity=".48" stroke-width=".5"/><path d="M54.024 28.677a1.439 1.439 0 001.437-1.438V9.437A1.439 1.439 0 0054.024 8H7.544a1.44 1.44 0 00-1.437 1.438v17.801a1.44 1.44 0 001.438 1.438h46.479zm-45.76-18.52h45.041V26.52H8.264V10.156z" fill="#fff" fill-opacity=".48"/><path d="M54.024 28.927h0a1.69 1.69 0 001.687-1.687v0V9.437v0a1.69 1.69 0 00-1.687-1.688h0-46.48 0a1.69 1.69 0 00-1.687 1.687V27.24h0a1.69 1.69 0 001.688 1.688h46.479zm-45.51-18.52h44.541V26.27H8.514V10.406z" stroke="#fff" stroke-opacity=".48" stroke-width=".5"/><path d="M55.169 49.426a1.078 1.078 0 001.078-1.078V33.792a1.453 1.453 0 00-1.45-1.453H7.45A1.453 1.453 0 006 33.792v48.552a1.454 1.454 0 001.45 1.453h30.328c.236.086.496.086.732 0h5.66a1.078 1.078 0 100-2.157h-4.948V75.9a1.079 1.079 0 00-2.156 0v5.74H23.4v-9.903h14.379a1.078 1.078 0 100-2.156h-14.38V59.098h14.37v2.12a1.078 1.078 0 102.156 0v-2.12h.466a1.078 1.078 0 100-2.156h-.466V46.833H54.09v1.515a1.078 1.078 0 001.078 1.078zm-17.4-14.93v10.18h-14.37v-10.18h14.37zm-16.526 0v10.18H8.156v-10.18h13.087zM8.156 46.832h13.087v10.109H8.156V46.833zM21.243 81.64H8.156v-9.904h13.087v9.904zm0-12.06H8.156V59.098h13.087V69.58zm16.525-12.64H23.4V46.834h14.37v10.109zm2.157-12.264V34.495H54.09v10.182H39.924z" fill="#fff" fill-opacity=".48"/><path d="M56.497 33.792v0a1.704 1.704 0 00-1.7-1.703h0H7.45h0a1.703 1.703 0 00-1.701 1.703v48.552h0a1.703 1.703 0 001.7 1.703h30.286c.265.086.55.086.816 0h5.618a1.329 1.329 0 000-2.657h-4.698V75.9a1.328 1.328 0 10-2.656 0v5.49H23.65v-9.403h14.129a1.329 1.329 0 000-2.656h-14.13v-9.983h13.87v1.87a1.328 1.328 0 002.656 0v-1.87h.216a1.329 1.329 0 000-2.656h-.216v-9.609H53.84v1.265a1.328 1.328 0 002.656 0V33.792zm-18.979.953v9.682H23.65v-9.682h13.87zm-16.525 0v9.682H8.406v-9.682h12.587zM8.406 47.083h12.587v9.609H8.406v-9.609zm12.587 34.308H8.406v-9.404h12.587v9.404zm0-12.06H8.406v-9.983h12.587v9.983zm16.525-12.64H23.65v-9.608h13.87v9.609zm2.657-12.264v-9.682H53.84v9.682H40.174z" stroke="#fff" stroke-opacity=".48" stroke-width=".5"/><path d="M58.044 47.178c-11.824 0-21.441 9.417-21.441 20.993 0 11.576 9.618 20.993 21.44 20.993 11.823 0 21.442-9.417 21.442-20.993 0-11.576-9.619-20.994-21.441-20.994zm0 39.83c-10.634 0-19.285-8.45-19.285-18.837s8.652-18.837 19.285-18.837c10.633 0 19.285 8.45 19.285 18.837s-8.651 18.837-19.285 18.837z" fill="#fff" fill-opacity=".48"/><path d="M58.044 46.928c-11.957 0-21.691 9.524-21.691 21.243s9.735 21.243 21.69 21.243c11.956 0 21.692-9.524 21.692-21.243s-9.736-21.244-21.691-21.244zm0 39.83c-10.501 0-19.035-8.344-19.035-18.587s8.534-18.587 19.035-18.587c10.5 0 19.035 8.344 19.035 18.587s-8.534 18.587-19.035 18.587z" stroke="#fff" stroke-opacity=".48" stroke-width=".5"/><path d="M59.123 57.787v-1.534a1.078 1.078 0 10-2.156 0v1.537a5.144 5.144 0 00-2.9 1.394c-1.613 1.572-1.709 3.776-1.7 4.414.037 2.477 1.919 4.568 4.578 5.084l.24.047.6.116c.092.018.308.082.423.117a.91.91 0 01.114.041l.044.018.37.141c.037.014.074.03.11.048.178.09.221.116.35.192.055.03.118.068.194.111l.043.027.041.026c.39.235 2.342 1.504 2.42 3.354.046 1.107-.24 1.953-.872 2.586-.873.872-2.35 1.217-3.427 1.172-2.271-.096-3.612-1.938-3.725-2.942a1.079 1.079 0 10-2.143.24c.313 2.787 3.082 4.481 5.24 4.803v1.31a1.078 1.078 0 102.156 0v-1.374c1.189-.213 2.463-.724 3.424-1.685 1.053-1.053 1.572-2.506 1.5-4.2-.12-2.872-2.666-4.631-3.463-5.113l-.105-.065-.2-.115a7.355 7.355 0 00-.46-.25 3.271 3.271 0 00-.315-.14l-.351-.133a3.248 3.248 0 00-.327-.118 6.95 6.95 0 00-.638-.169l-.588-.114-.245-.048c-1.931-.374-2.814-1.776-2.831-2.998-.013-.866.256-2.066 1.047-2.839.631-.615 1.542-.903 2.708-.855a4.135 4.135 0 013.965 2.95 1.078 1.078 0 002.095-.51 6.25 6.25 0 00-5.216-4.526z" fill="#fff" fill-opacity=".48"/><path d="M59.197 69.402l-.018-.011c-.116-.067-.164-.095-.334-.18a1.118 1.118 0 00-.109-.049l.46.24zm0 0l.072.041.121.07-.193-.111zm-5.304-10.398h0a5.393 5.393 0 012.824-1.43v-1.321a1.328 1.328 0 012.656 0v1.319a6.501 6.501 0 015.207 4.675l.003.01h0a1.328 1.328 0 01-2.581.627 3.874 3.874 0 00-.746-1.377c-.548-.658-1.468-1.323-2.987-1.385h0c-1.12-.045-1.956.233-2.523.785-.725.707-.985 1.829-.972 2.656.016 1.103.812 2.404 2.629 2.757h0l.245.048h0l.586.114c.201.038.436.107.664.175h0c.118.035.234.077.347.125l.348.132h0c.116.044.23.094.34.15m-6.04-8.06l6.386 8.533.126-.216s0 0 0 0a7.603 7.603 0 00-.472-.257m-6.04-8.06h0c-1.691 1.648-1.785 3.944-1.775 4.597l1.775-4.597zm6.04 8.06l-.113.224.113-.224s0 0 0 0zm.783.44h-.003l-.129.213.134-.21-.002-.002zm-8.598-3.903c.038 2.611 2.02 4.79 4.779 5.326l.24.047h0l.115.022.485.095c.078.015.277.074.399.11a.817.817 0 01.135.052h0l.006.002.37.141h0c.03.011.058.024.085.037h0c.164.083.208.108.32.173l.02.012h0l.069.04.12.07.038.023.046.029c.186.112.75.475 1.274 1.029.527.557.99 1.282 1.025 2.121.044 1.055-.227 1.827-.8 2.399-.805.806-2.204 1.142-3.239 1.099a3.86 3.86 0 01-2.51-1.062c-.603-.57-.928-1.23-.976-1.657a1.328 1.328 0 00-1.965-1.022l.12.218-.12-.218a1.326 1.326 0 00-.675 1.318c.165 1.473.98 2.648 2.019 3.49a7.395 7.395 0 003.219 1.495v1.099a1.328 1.328 0 102.656 0v-1.167l-7.255-15.32z" stroke="#fff" stroke-opacity=".48" stroke-width=".5"/></svg>