<svg width="80" height="92" viewBox="0 0 80 92" fill="none" xmlns="http://www.w3.org/2000/svg">
<path d="M24.235 15.6517C23.4844 15.0085 22.4923 14.7259 21.513 14.8781C13.4633 16.1243 7.39307 23.197 7.39307 31.3299C7.39307 35.7487 9.13212 39.9214 12.2896 43.0791C15.4472 46.2368 19.6198 47.9756 24.0389 47.9756C32.1717 47.9756 39.2444 41.9054 40.4906 33.8557C40.6423 32.8764 40.3604 31.8843 39.717 31.1337C39.0777 30.3878 38.1473 29.9598 37.1647 29.9598H26.0353C25.6899 29.9598 25.4089 29.6789 25.4089 29.3334V18.2038C25.4089 17.2212 24.9809 16.2911 24.235 15.6517ZM26.0353 32.6999H37.1647C37.4133 32.6999 37.567 32.8358 37.6366 32.9169C37.7083 33.0006 37.8227 33.1794 37.7829 33.4365C36.7414 40.163 30.8329 45.2355 24.0389 45.2355C16.3711 45.2355 10.1332 38.9976 10.1332 31.3299C10.1332 24.536 15.2057 18.6273 21.9323 17.5859C21.9688 17.5802 22.0037 17.5776 22.0369 17.5776C22.2382 17.5776 22.38 17.6706 22.4518 17.7322C22.5327 17.8016 22.6688 17.9552 22.6688 18.204V29.3334C22.6688 31.1897 24.179 32.6999 26.0353 32.6999Z" fill="white" fill-opacity="0.48"/>
<path d="M24.3652 15.4998L24.3652 15.4999C25.1554 16.1772 25.6089 17.1628 25.6089 18.2038V29.3334C25.6089 29.5684 25.8003 29.7598 26.0353 29.7598H37.1647C38.2057 29.7598 39.1915 30.2133 39.8689 31.0035C40.5504 31.7986 40.8488 32.8495 40.6883 33.8863C39.427 42.0332 32.2706 48.1756 24.0389 48.1756C19.5661 48.1756 15.3428 46.4152 12.1482 43.2205C8.95364 40.0257 7.19307 35.8024 7.19307 31.3299C7.19307 23.0982 13.3354 15.9418 21.4823 14.6805L24.3652 15.4998ZM24.3652 15.4998C23.5702 14.8186 22.5194 14.5193 21.4824 14.6804L24.3652 15.4998ZM37.5852 33.4058L37.5852 33.4059C36.5589 40.0352 30.7339 45.0355 24.0389 45.0355C16.4816 45.0355 10.3332 38.8871 10.3332 31.3299C10.3332 24.635 15.3335 18.8099 21.9629 17.7835L21.9629 17.7835C21.9893 17.7794 22.014 17.7776 22.0369 17.7776C22.1738 17.7776 22.271 17.8406 22.3216 17.884C22.3783 17.9327 22.4688 18.0357 22.4688 18.204V29.3334C22.4688 31.3002 24.0685 32.8999 26.0353 32.8999H37.1647C37.3329 32.8999 37.4359 32.9902 37.4848 33.0472C37.535 33.1057 37.6128 33.2276 37.5852 33.4058Z" stroke="white" stroke-opacity="0.48" stroke-width="0.4"/>
<path d="M77.3666 75.194C78.1233 75.194 78.7367 74.5806 78.7367 73.824V10.7887C78.7367 6.98928 75.6464 3.89826 71.8481 3.89826H69.103C67.9869 1.59346 65.6238 0 62.8952 0H8.15339C4.35396 0 1.26294 3.09102 1.26294 6.89046V32.631C1.26294 33.3877 1.87636 34.0011 2.63299 34.0011C3.38963 34.0011 4.00305 33.3877 4.00305 32.631V6.89046C4.00305 4.60192 5.86486 2.74011 8.15339 2.74011H62.8952C65.1847 2.74011 67.0474 4.60192 67.0474 6.89046V68.0588H56.3811C54.2548 68.0588 52.5248 69.7887 52.5248 71.915V82.9869H8.15339C5.86486 82.9869 4.00305 81.1258 4.00305 78.8383V38.8419C4.00305 38.0853 3.38963 37.4719 2.63299 37.4719C1.87636 37.4719 1.26294 38.0853 1.26294 38.8419V78.8383C1.26294 82.6367 4.35396 85.727 8.15339 85.727H10.2412C10.5546 89.238 13.5114 92 17.1024 92H71.8479C75.6462 92 78.7365 88.909 78.7365 85.1095V80.2175C78.7365 79.4609 78.1231 78.8475 77.3665 78.8475C76.6098 78.8475 75.9964 79.4609 75.9964 80.2175V85.1095C75.9964 87.3981 74.1353 89.2599 71.8479 89.2599H17.1026C15.0239 89.2599 13.2977 87.7236 12.9984 85.727H53.8785C53.8841 85.727 53.89 85.7277 53.8956 85.7277C54.2526 85.7277 54.6091 85.5891 54.8777 85.3129L69.3995 70.3846C69.6454 70.1318 69.7875 69.7812 69.7875 69.4286V6.63837H71.8481C74.1355 6.63837 75.9966 8.50018 75.9966 10.7887V73.824C75.9966 74.5806 76.61 75.194 77.3666 75.194ZM56.3811 70.7989H65.1741L55.2649 80.9853V71.915C55.2649 71.2996 55.7657 70.7989 56.3811 70.7989Z" fill="white" fill-opacity="0.48"/>
<path d="M77.3666 75.394C78.2337 75.394 78.9367 74.691 78.9367 73.824V10.7887C78.9367 6.87887 75.7569 3.69826 71.8481 3.69826H69.2271C68.0572 1.38825 65.6588 -0.2 62.8952 -0.2H8.15339C4.24351 -0.2 1.06294 2.98057 1.06294 6.89046V32.631C1.06294 33.4981 1.7659 34.2011 2.63299 34.2011C3.50008 34.2011 4.20305 33.4981 4.20305 32.631V6.89046C4.20305 4.71238 5.97531 2.94011 8.15339 2.94011H62.8952C65.0743 2.94011 66.8474 4.71246 66.8474 6.89046V67.8588H56.3811C54.1443 67.8588 52.3248 69.6782 52.3248 71.915V82.7869H8.15339C5.97523 82.7869 4.20305 81.0153 4.20305 78.8383V38.8419C4.20305 37.9748 3.50008 37.2719 2.63299 37.2719C1.7659 37.2719 1.06294 37.9748 1.06294 38.8419V78.8383C1.06294 82.7472 4.24355 85.927 8.15339 85.927H10.0606C10.4674 89.4529 13.4691 92.2 17.1024 92.2H71.8479C75.7567 92.2 78.9365 89.0194 78.9365 85.1095V80.2175C78.9365 79.3504 78.2335 78.6475 77.3665 78.6475C76.4994 78.6475 75.7964 79.3504 75.7964 80.2175V85.1095C75.7964 87.2877 74.0248 89.0599 71.8479 89.0599H17.1026C15.205 89.0599 13.6153 87.7142 13.2377 85.927H53.875L53.8818 85.9274C53.8852 85.9275 53.89 85.9277 53.8956 85.9277C54.3043 85.9277 54.7133 85.7688 55.021 85.4523C55.0211 85.4523 55.0211 85.4523 55.0211 85.4523L69.5429 70.524L69.3995 70.3846L69.5429 70.524C69.8251 70.2338 69.9875 69.8332 69.9875 69.4286V6.83837H71.8481C74.025 6.83837 75.7966 8.61055 75.7966 10.7887V73.824C75.7966 74.691 76.4995 75.394 77.3666 75.394ZM56.3811 70.9989H64.7005L55.4649 80.4929V71.915C55.4649 71.41 55.8761 70.9989 56.3811 70.9989Z" stroke="white" stroke-opacity="0.48" stroke-width="0.4"/>
<path d="M55.6836 63.842C55.6836 63.0854 55.0702 62.472 54.3136 62.472H12.0007C11.244 62.472 10.6306 63.0854 10.6306 63.842C10.6306 64.5986 11.244 65.2121 12.0007 65.2121H54.3136C55.0702 65.2121 55.6836 64.5986 55.6836 63.842Z" fill="white" fill-opacity="0.48"/>
<path d="M55.8836 63.842C55.8836 62.9749 55.1807 62.272 54.3136 62.272H12.0007C11.1336 62.272 10.4306 62.9749 10.4306 63.842C10.4306 64.7091 11.1336 65.4121 12.0007 65.4121H54.3136C55.1807 65.4121 55.8836 64.7091 55.8836 63.842Z" stroke="white" stroke-opacity="0.48" stroke-width="0.4"/>
<path d="M11.5827 69.3644C10.8261 69.3644 10.2126 69.9779 10.2126 70.7345C10.2126 71.4911 10.8261 72.1045 11.5827 72.1045H41.6325C42.3891 72.1045 43.0026 71.4911 43.0026 70.7345C43.0026 69.9779 42.3891 69.3644 41.6325 69.3644H11.5827Z" fill="white" fill-opacity="0.48"/>
<path d="M11.5827 69.1644C10.7156 69.1644 10.0126 69.8674 10.0126 70.7345C10.0126 71.6016 10.7156 72.3045 11.5827 72.3045H41.6325C42.4996 72.3045 43.2026 71.6016 43.2026 70.7345C43.2026 69.8674 42.4996 69.1644 41.6325 69.1644H11.5827Z" stroke="white" stroke-opacity="0.48" stroke-width="0.4"/>
<path d="M10.6306 56.9493C10.6306 57.7059 11.244 58.3193 12.0007 58.3193H54.3136C55.0702 58.3193 55.6836 57.7059 55.6836 56.9493C55.6836 56.1926 55.0702 55.5792 54.3136 55.5792H12.0007C11.244 55.5792 10.6306 56.1926 10.6306 56.9493Z" fill="white" fill-opacity="0.48"/>
<path d="M10.4306 56.9493C10.4306 57.8164 11.1336 58.5193 12.0007 58.5193H54.3136C55.1807 58.5193 55.8836 57.8164 55.8836 56.9493C55.8836 56.0822 55.1807 55.3792 54.3136 55.3792H12.0007C11.1336 55.3792 10.4306 56.0822 10.4306 56.9493Z" stroke="white" stroke-opacity="0.48" stroke-width="0.4"/>
<path d="M32.0422 9.46875C31.066 9.32133 30.0782 9.60576 29.3316 10.2484C28.5885 10.8878 28.1624 11.8168 28.1624 12.7973V24.1351C28.1624 25.9914 29.6725 27.5016 31.5288 27.5016H45.0133C45.7699 27.5016 46.3833 26.8882 46.3833 26.1315C46.3833 21.6957 44.5844 17.3528 41.4479 14.2161C38.9197 11.6879 35.5793 10.002 32.0422 9.46875ZM31.5288 24.7617C31.1829 24.7617 30.9025 24.4812 30.9025 24.1353V12.7973C30.9545 12.3329 31.1982 12.1617 31.6337 12.1782C34.5958 12.6246 37.393 14.0365 39.5102 16.1537C41.7319 18.3754 43.1522 21.3197 43.5371 24.4228C43.5594 24.6031 43.4158 24.7615 43.2342 24.7615H31.5288V24.7617Z" fill="white" fill-opacity="0.48"/>
<path d="M41.5893 14.0747L41.4479 14.2161L41.5893 14.0747C39.0308 11.5162 35.6513 9.81058 32.072 9.27099C31.0383 9.11489 29.992 9.41611 29.2012 10.0968C28.4139 10.7742 27.9624 11.7586 27.9624 12.7973V24.1351C27.9624 26.1019 29.5621 27.7016 31.5288 27.7016H45.0133C45.8804 27.7016 46.5833 26.9986 46.5833 26.1315C46.5833 21.6426 44.7633 17.2489 41.5893 14.0747ZM31.5288 24.5615H31.5163C31.2866 24.5548 31.1025 24.3666 31.1025 24.1353V12.8088C31.1261 12.6133 31.1852 12.5155 31.2502 12.4628C31.3175 12.4083 31.4277 12.3721 31.6153 12.3777C34.5309 12.8196 37.2846 14.2109 39.3688 16.2951C41.5585 18.4848 42.9591 21.3879 43.3386 24.4473C43.3458 24.5052 43.2988 24.5615 43.2342 24.5615H31.5288Z" stroke="white" stroke-opacity="0.48" stroke-width="0.4"/>
<path d="M50.2195 40.76C50.2195 40.7642 50.22 40.7682 50.22 40.7724V44.7719C50.22 46.5433 51.4533 48.0284 53.1052 48.4237V50.9927C53.1052 51.7493 53.7186 52.3627 54.4752 52.3627C55.2319 52.3627 55.8453 51.7493 55.8453 50.9927V48.4243C57.4981 48.0297 58.7323 46.5438 58.7323 44.7719V17.0646C59.5687 17.012 60.3831 17.3167 60.9748 17.9084C61.5248 18.4599 61.8279 19.1911 61.8279 19.9675V27.6075C61.8279 28.3641 62.4413 28.9775 63.1979 28.9775C63.9545 28.9775 64.568 28.3641 64.568 27.6075V19.9675C64.568 18.4604 63.9808 17.042 62.9135 15.9721C61.8467 14.9051 60.4284 14.3176 58.9199 14.3176C58.8574 14.3176 58.7947 14.3196 58.7323 14.3218V12.1951C58.7323 10.1227 57.0462 8.43658 54.9738 8.43658H53.9785C51.9061 8.43658 50.22 10.1227 50.22 12.1951V26.3163C50.22 26.3205 50.2195 26.3246 50.2195 26.3288C50.2195 26.333 50.22 26.337 50.22 26.3412V40.7478C50.22 40.7518 50.2195 40.7558 50.2195 40.76ZM55.9923 39.3899H52.9603V27.6988H55.9923V39.3899ZM54.9738 45.7903H53.9785C53.417 45.7903 52.9601 45.3334 52.9601 44.7719V42.1301H55.9922V44.7717C55.9923 45.3334 55.5355 45.7903 54.9738 45.7903ZM53.9787 11.1767H54.9739C55.5355 11.1767 55.9923 11.6336 55.9923 12.1951V24.9587H52.9603V12.1951C52.9601 11.6336 53.417 11.1767 53.9787 11.1767Z" fill="white" fill-opacity="0.48"/>
<path d="M63.0551 15.8308L63.0549 15.8307C61.9535 14.7291 60.4892 14.1208 58.9323 14.1176V12.1951C58.9323 10.0122 57.1566 8.23658 54.9738 8.23658H53.9785C51.7957 8.23658 50.02 10.0122 50.02 12.1951V26.3121L50.0198 26.3157C50.0197 26.3189 50.0195 26.3234 50.0195 26.3288C50.0195 26.3341 50.0197 26.3386 50.0198 26.3418L50.02 26.3454V40.7434L50.0198 40.747C50.0197 40.7502 50.0195 40.7547 50.0195 40.76C50.0195 40.7653 50.0197 40.7698 50.0198 40.773L50.02 40.7767V44.7719C50.02 46.5831 51.2435 48.1091 52.9052 48.5782V50.9927C52.9052 51.8597 53.6081 52.5627 54.4752 52.5627C55.3423 52.5627 56.0453 51.8597 56.0453 50.9927V48.5788C57.708 48.1103 58.9323 46.5837 58.9323 44.7719V17.2588C59.6449 17.2626 60.3267 17.5433 60.8332 18.0496C61.346 18.5638 61.6279 19.2443 61.6279 19.9675V27.6075C61.6279 28.4746 62.3308 29.1775 63.1979 29.1775C64.065 29.1775 64.768 28.4746 64.768 27.6075V19.9675C64.768 18.4074 64.1597 16.9381 63.0551 15.8308ZM50.0202 26.3093L50.0202 26.3096L50.0202 26.3093ZM50.0202 26.3482C50.0203 26.3495 50.0202 26.3489 50.0202 26.348L50.0202 26.3482ZM50.0202 40.7404L50.0202 40.7406L50.0202 40.7404ZM50.0202 40.7795C50.0203 40.7808 50.0202 40.7801 50.0202 40.7792L50.0202 40.7795ZM53.1601 44.7719V42.3301H55.7922V44.7717V44.7718C55.7923 45.223 55.425 45.5903 54.9738 45.5903H53.9785C53.5275 45.5903 53.1601 45.223 53.1601 44.7719ZM55.7923 12.1951V24.7587H53.1603V12.1951V12.195C53.1602 11.744 53.5274 11.3767 53.9787 11.3767H54.9739C55.425 11.3767 55.7923 11.744 55.7923 12.1951ZM55.7923 39.1899H53.1603V27.8988H55.7923V39.1899Z" stroke="white" stroke-opacity="0.48" stroke-width="0.4"/>
</svg>
