<svg width="93" height="72" viewBox="0 0 93 72" fill="none" xmlns="http://www.w3.org/2000/svg">
<path d="M56.5341 0C36.9406 0 21 15.9406 21 35.5341C21 55.1276 36.9404 71.0682 56.5341 71.0682C76.1277 71.0682 92.0683 55.1276 92.0683 35.5341C92.0683 15.9406 76.1277 0 56.5341 0ZM56.5341 65.6776C39.913 65.6776 26.3906 52.1552 26.3906 35.5341C26.3906 18.913 39.913 5.39063 56.5341 5.39063C73.1553 5.39063 86.6777 18.913 86.6777 35.5341C86.6777 52.1552 73.1553 65.6776 56.5341 65.6776Z" fill="white" fill-opacity="0.48"/>
<path d="M58.3906 37.4112V20H53V40.2608L66.8913 49.7273L69.9271 45.2727L58.3906 37.4112Z" fill="white" fill-opacity="0.48"/>
<path d="M15.5412 33.4766H0V38.8672H15.5412V33.4766Z" fill="white" fill-opacity="0.48"/>
<path d="M15.5656 23H5V28.3906H15.5656V23Z" fill="white" fill-opacity="0.48"/>
<path d="M15.5656 44H5V49.3906H15.5656V44Z" fill="white" fill-opacity="0.48"/>
</svg>
