<svg width="91" height="92" viewBox="0 0 91 92" fill="none" xmlns="http://www.w3.org/2000/svg">
<path d="M76.4261 57.3716C80.2705 51.5331 82.5117 44.5499 82.5117 37.0514C82.5117 16.6211 65.8899 0 45.4595 0C25.0292 0 8.40811 16.6211 8.40811 37.0514C8.40811 44.5499 10.6493 51.5331 14.4929 57.3716L0 78.508L16.5839 75.4161L19.6765 92L33.344 72.0666C37.1427 73.3848 41.2186 74.1028 45.4595 74.1028C49.7011 74.1028 53.7771 73.3848 57.5751 72.0666L71.2433 92L74.3352 75.4161L90.9191 78.508L76.4261 57.3716ZM22.6069 78.1374L20.9203 69.0912L11.8748 70.7786L17.9786 61.8764C20.902 65.1093 24.387 67.8243 28.2769 69.8697L22.6069 78.1374ZM13.8303 37.0514C13.8303 19.6112 28.0193 5.42221 45.4595 5.42221C62.9005 5.42221 77.0894 19.6112 77.0894 37.0514C77.0894 54.4923 62.9005 68.6813 45.4595 68.6813C28.0193 68.6813 13.8303 54.4923 13.8303 37.0514ZM69.9988 69.0912L68.3121 78.1374L62.6429 69.8697C66.5328 67.8243 70.0178 65.1093 72.9412 61.8764L79.045 70.7779L69.9988 69.0912Z" fill="white" fill-opacity="0.48"/>
<path d="M38.6497 44.0251L29.8338 35.2098L26 39.0436L38.6497 51.6934L64.51 25.8338L60.6762 22L38.6497 44.0251Z" fill="white" fill-opacity="0.48"/>
</svg>
