<svg width="80" height="90" viewBox="0 0 80 90" fill="none" xmlns="http://www.w3.org/2000/svg">
<path d="M55.8028 0.796875H5.99073C4.71433 0.801299 3.49181 1.31183 2.59135 2.21647C1.69089 3.12111 1.18602 4.34598 1.1875 5.62238V84.3388C1.18602 85.6152 1.69089 86.8401 2.59135 87.7447C3.49181 88.6493 4.71433 89.1599 5.99073 89.1643H55.8028C56.0887 89.1643 56.3629 89.0507 56.5651 88.8485C56.7673 88.6463 56.8809 88.3721 56.8809 88.0862C56.8809 87.8002 56.7673 87.526 56.5651 87.3238C56.3629 87.1216 56.0887 87.0081 55.8028 87.0081H5.99073C5.286 87.0043 4.61154 86.7212 4.11531 86.2207C3.61908 85.7203 3.3416 85.0435 3.34375 84.3388V5.62238C3.3416 4.91765 3.61908 4.24084 4.11531 3.74043C4.61154 3.24002 5.286 2.95688 5.99073 2.95312H55.8028C56.5075 2.95688 57.1819 3.24002 57.6782 3.74043C58.1744 4.24084 58.4519 4.91765 58.4497 5.62238V48.406C58.4497 48.6919 58.5633 48.9661 58.7655 49.1683C58.9677 49.3705 59.2419 49.4841 59.5279 49.4841C59.8138 49.4841 60.088 49.3705 60.2902 49.1683C60.4924 48.9661 60.606 48.6919 60.606 48.406V5.62238C60.6075 4.34597 60.1027 3.12107 59.2022 2.21642C58.3017 1.31177 57.0792 0.801252 55.8028 0.796875Z" fill="white" fill-opacity="0.48"/>
<path d="M55.8028 0.546875H55.8036C57.1462 0.551481 58.4322 1.08848 59.3794 2.04005C60.3266 2.99162 60.8576 4.28006 60.856 5.62268M55.8028 0.546875L60.606 5.62238M55.8028 0.546875L5.99073 0.546874L5.98986 0.546877C4.64726 0.55153 3.36133 1.08854 2.41416 2.0401C1.46703 2.99163 0.935981 4.27998 0.937503 5.62253M55.8028 0.546875L0.937503 5.62253M60.856 5.62268L60.606 5.62238M60.856 5.62268V5.62238H60.606M60.856 5.62268V48.406C60.856 48.7582 60.7161 49.096 60.467 49.3451C60.2179 49.5942 59.8801 49.7341 59.5279 49.7341C59.1756 49.7341 58.8378 49.5942 58.5887 49.3451C58.3397 49.096 58.1997 48.7582 58.1997 48.406V5.62238V5.62162C58.2017 4.98309 57.9503 4.36986 57.5007 3.91646C57.0512 3.46322 56.4404 3.2067 55.8021 3.20312M60.606 5.62238V48.406C60.606 48.6919 60.4924 48.9661 60.2902 49.1683C60.088 49.3705 59.8138 49.4841 59.5279 49.4841C59.2419 49.4841 58.9677 49.3705 58.7655 49.1683C58.5633 48.9661 58.4497 48.6919 58.4497 48.406V5.62238C58.4519 4.91765 58.1744 4.24084 57.6782 3.74043C57.1819 3.24002 56.5075 2.95688 55.8028 2.95312M55.8021 3.20312H55.8028V2.95312M55.8021 3.20312H5.99141M55.8021 3.20312C55.8019 3.20312 55.8017 3.20312 55.8014 3.20312L55.8028 2.95312M55.8028 2.95312H5.99073M3.34375 84.3388C3.3416 85.0435 3.61908 85.7203 4.11531 86.2207C4.61154 86.7212 5.286 87.0043 5.99073 87.0081M3.34375 84.3388L55.8028 0.796875H5.99073C4.71433 0.801299 3.49181 1.31183 2.59135 2.21647C1.69089 3.12111 1.18602 4.34598 1.1875 5.62238M3.34375 84.3388V5.62238C3.3416 4.91765 3.61908 4.24084 4.11531 3.74043C4.61154 3.24002 5.286 2.95688 5.99073 2.95312M3.34375 84.3388L5.99141 3.20312M5.99073 87.0081H55.8028C56.0887 87.0081 56.3629 87.1216 56.5651 87.3238C56.7673 87.526 56.8809 87.8002 56.8809 88.0862C56.8809 88.3721 56.7673 88.6463 56.5651 88.8485C56.3629 89.0507 56.0887 89.1643 55.8028 89.1643H5.99073C4.71433 89.1599 3.49181 88.6493 2.59135 87.7447C1.69089 86.8401 1.18602 85.6152 1.1875 84.3388M5.99073 87.0081V86.7581H5.99206L5.99073 87.0081ZM1.1875 84.3388V5.62238M1.1875 84.3388H0.937503V84.3387V5.62253M1.1875 84.3388L0.937503 5.62253M1.1875 5.62238H0.937503V5.62253M1.1875 5.62238L0.937503 5.62267C0.937503 5.62262 0.937503 5.62258 0.937503 5.62253M5.99141 3.20312H5.99073V2.95312M5.99141 3.20312C5.99162 3.20312 5.99184 3.20312 5.99206 3.20312L5.99073 2.95312" stroke="white" stroke-opacity="0.48" stroke-width="0.5"/>
<path d="M54.0238 28.6768C54.4049 28.6764 54.7703 28.5248 55.0398 28.2553C55.3093 27.9858 55.4609 27.6204 55.4613 27.2393V9.4375C55.4609 9.05638 55.3093 8.691 55.0398 8.42151C54.7703 8.15202 54.4049 8.00043 54.0238 8H7.54492C7.1638 8.00043 6.79842 8.15202 6.52893 8.42151C6.25944 8.691 6.10785 9.05638 6.10742 9.4375V27.2393C6.10785 27.6204 6.25944 27.9858 6.52893 28.2553C6.79842 28.5248 7.1638 28.6764 7.54492 28.6768H54.0238ZM8.26367 10.1563H53.305V26.5206H8.26367V10.1563Z" fill="white" fill-opacity="0.48"/>
<path d="M54.0238 28.9268H54.0241C54.4714 28.9263 54.9003 28.7484 55.2166 28.4321C55.5329 28.1158 55.7108 27.6869 55.7113 27.2396V27.2393V9.4375V9.43722C55.7108 8.9899 55.5329 8.56104 55.2166 8.24473C54.9003 7.92842 54.4714 7.7505 54.0241 7.75H54.0238L7.54492 7.75L7.54464 7.75C7.09732 7.7505 6.66846 7.92842 6.35215 8.24473C6.03585 8.56104 5.85792 8.9899 5.85742 9.43722V9.4375L5.85742 27.2393L5.85742 27.2396C5.85792 27.6869 6.03585 28.1158 6.35215 28.4321C6.66846 28.7484 7.09732 28.9263 7.54464 28.9268H7.54492H54.0238ZM8.51367 10.4063H53.055V26.2706H8.51367V10.4063Z" stroke="white" stroke-opacity="0.48" stroke-width="0.5"/>
<path d="M55.1686 49.426C55.4546 49.426 55.7288 49.3124 55.931 49.1102C56.1332 48.9081 56.2467 48.6338 56.2467 48.3479V33.7919C56.2466 33.4071 56.0937 33.038 55.8218 32.7657C55.5499 32.4933 55.181 32.3399 54.7961 32.3392H7.4508C7.0659 32.3399 6.697 32.4932 6.42502 32.7656C6.15304 33.0379 6.00019 33.407 6 33.7919V82.3435C6.00014 82.7284 6.15297 83.0976 6.42495 83.37C6.69694 83.6424 7.06587 83.7957 7.4508 83.7965H37.7779C38.0142 83.8832 38.2737 83.8832 38.51 83.7965H44.1701C44.4561 83.7965 44.7303 83.6829 44.9325 83.4807C45.1347 83.2785 45.2483 83.0043 45.2483 82.7183C45.2483 82.4324 45.1347 82.1582 44.9325 81.956C44.7303 81.7538 44.4561 81.6402 44.1701 81.6402H39.2224V75.9001C39.2224 75.6142 39.1088 75.3399 38.9067 75.1377C38.7045 74.9356 38.4302 74.822 38.1443 74.822C37.8584 74.822 37.5841 74.9356 37.382 75.1377C37.1798 75.3399 37.0662 75.6142 37.0662 75.9001V81.6406H23.399V71.7375H37.7779C38.0639 71.7375 38.3381 71.6239 38.5403 71.4217C38.7425 71.2195 38.856 70.9453 38.856 70.6593C38.856 70.3734 38.7425 70.0992 38.5403 69.897C38.3381 69.6948 38.0639 69.5812 37.7779 69.5812H23.399V59.0979H37.7684V61.2182C37.7684 61.5041 37.882 61.7784 38.0842 61.9805C38.2864 62.1827 38.5606 62.2963 38.8465 62.2963C39.1325 62.2963 39.4067 62.1827 39.6089 61.9805C39.8111 61.7784 39.9246 61.5041 39.9246 61.2182V59.0979H40.3909C40.6769 59.0979 40.9511 58.9843 41.1533 58.7821C41.3555 58.5799 41.4691 58.3057 41.4691 58.0198C41.4691 57.7338 41.3555 57.4596 41.1533 57.2574C40.9511 57.0552 40.6769 56.9416 40.3909 56.9416H39.9246V46.8331H54.0905V48.3479C54.0905 48.6338 54.2041 48.9081 54.4063 49.1102C54.6085 49.3124 54.8827 49.426 55.1686 49.426ZM37.7684 34.4954V44.6769H23.399V34.4954H37.7684ZM21.2427 34.4954V44.6769H8.15625V34.4954H21.2427ZM8.15625 46.8331H21.2427V56.9416H8.15625V46.8331ZM21.2427 81.6406H8.15625V71.7375H21.2427V81.6406ZM21.2427 69.5812H8.15625V59.0979H21.2427V69.5812ZM37.7684 56.9416H23.399V46.8331H37.7684V56.9416ZM39.9246 44.6769V34.4954H54.0905V44.6769H39.9246Z" fill="white" fill-opacity="0.48"/>
<path d="M56.4967 33.7919V33.7918C56.4965 33.3408 56.3174 32.9082 55.9987 32.589C55.68 32.2698 55.2477 32.0901 54.7966 32.0892H54.7961L7.4508 32.0892L7.45033 32.0892C6.99923 32.09 6.56688 32.2697 6.24812 32.5889C5.92936 32.9081 5.75022 33.3407 5.75 33.7918V33.7919L5.75 82.3435L5.75 82.3436C5.75017 82.7947 5.92928 83.2274 6.24805 83.5466C6.56681 83.8659 6.9992 84.0456 7.45033 84.0465H7.4508H37.7359C38.001 84.1332 38.2869 84.1332 38.552 84.0465H44.1701C44.5224 84.0465 44.8602 83.9065 45.1093 83.6575C45.3583 83.4084 45.4983 83.0706 45.4983 82.7183C45.4983 82.3661 45.3583 82.0283 45.1093 81.7792C44.8602 81.5301 44.5224 81.3902 44.1701 81.3902H39.4724V75.9001C39.4724 75.5479 39.3325 75.21 39.0834 74.961C38.8344 74.7119 38.4965 74.572 38.1443 74.572C37.7921 74.572 37.4543 74.7119 37.2052 74.961C36.9561 75.21 36.8162 75.5479 36.8162 75.9001V81.3906H23.649V71.9875H37.7779C38.1302 71.9875 38.468 71.8475 38.7171 71.5985C38.9661 71.3494 39.106 71.0116 39.106 70.6593C39.106 70.3071 38.9661 69.9693 38.7171 69.7202C38.468 69.4711 38.1302 69.3312 37.7779 69.3312H23.649V59.3479H37.5184V61.2182C37.5184 61.5704 37.6583 61.9082 37.9074 62.1573C38.1565 62.4064 38.4943 62.5463 38.8465 62.5463C39.1988 62.5463 39.5366 62.4064 39.7857 62.1573C40.0347 61.9082 40.1746 61.5704 40.1746 61.2182V59.3479H40.3909C40.7432 59.3479 41.081 59.2079 41.3301 58.9589C41.5791 58.7098 41.7191 58.372 41.7191 58.0198C41.7191 57.6675 41.5791 57.3297 41.3301 57.0806C41.081 56.8316 40.7432 56.6916 40.3909 56.6916H40.1746V47.0831H53.8405V48.3479C53.8405 48.7001 53.9804 49.0379 54.2295 49.287C54.4786 49.5361 54.8164 49.676 55.1686 49.676C55.5209 49.676 55.8587 49.5361 56.1078 49.287C56.3568 49.0379 56.4967 48.7001 56.4967 48.3479V33.7919ZM37.5184 34.7454V44.4269H23.649V34.7454H37.5184ZM20.9927 34.7454V44.4269H8.40625V34.7454H20.9927ZM8.40625 47.0831H20.9927V56.6916H8.40625V47.0831ZM20.9927 81.3906H8.40625V71.9875H20.9927V81.3906ZM20.9927 69.3312H8.40625V59.3479H20.9927V69.3312ZM37.5184 56.6916H23.649V47.0831H37.5184V56.6916ZM40.1746 44.4269V34.7454H53.8405V44.4269H40.1746Z" stroke="white" stroke-opacity="0.48" stroke-width="0.5"/>
<path d="M58.0438 47.1775C46.2204 47.1775 36.6028 56.5951 36.6028 68.1709C36.6028 79.7467 46.2213 89.1643 58.0438 89.1643C69.8664 89.1643 79.4848 79.7467 79.4848 68.1709C79.4848 56.5951 69.8664 47.1775 58.0438 47.1775ZM58.0438 87.0081C47.4101 87.0081 38.759 78.5577 38.759 68.1709C38.759 57.784 47.4106 49.3337 58.0438 49.3337C68.677 49.3337 77.3286 57.784 77.3286 68.1709C77.3286 78.5577 68.6775 87.0081 58.0438 87.0081Z" fill="white" fill-opacity="0.48"/>
<path d="M58.0438 46.9275C46.0873 46.9275 36.3528 56.452 36.3528 68.1709C36.3528 79.8897 46.0882 89.4143 58.0438 89.4143C69.9994 89.4143 79.7348 79.8897 79.7348 68.1709C79.7348 56.452 69.9994 46.9275 58.0438 46.9275ZM58.0438 86.7581C47.5426 86.7581 39.009 78.4141 39.009 68.1709C39.009 57.9276 47.5431 49.5837 58.0438 49.5837C68.5445 49.5837 77.0786 57.9276 77.0786 68.1709C77.0786 78.4141 68.545 86.7581 58.0438 86.7581Z" stroke="white" stroke-opacity="0.48" stroke-width="0.5"/>
<path d="M59.123 57.7874V56.2528C59.123 55.9669 59.0095 55.6927 58.8073 55.4905C58.6051 55.2883 58.3309 55.1747 58.0449 55.1747C57.759 55.1747 57.4848 55.2883 57.2826 55.4905C57.0804 55.6927 56.9668 55.9669 56.9668 56.2528V57.7897C55.8759 57.9322 54.8594 58.4208 54.0666 59.1837C52.4536 60.7558 52.3585 62.9599 52.3679 63.5977C52.4038 66.0753 54.286 68.1658 56.9445 68.6815L57.1858 68.7287C57.3873 68.7681 57.6334 68.8164 57.7847 68.8452C57.8773 68.8631 58.0929 68.9273 58.2079 68.9616C58.2469 68.9733 58.2851 68.9873 58.3225 69.0033C58.3367 69.0094 58.3511 69.0153 58.3657 69.0213L58.7364 69.1625C58.7734 69.1765 58.8097 69.1926 58.8451 69.2105C59.0235 69.3003 59.0672 69.3264 59.1969 69.4017C59.2508 69.4326 59.3139 69.4696 59.3901 69.5131L59.4334 69.5404C59.4452 69.5481 59.4589 69.5565 59.4742 69.5657C59.8644 69.8013 61.8155 71.0695 61.8933 72.9198C61.9398 74.0268 61.6547 74.8726 61.0216 75.5056C60.1491 76.3782 58.6715 76.7227 57.5946 76.6777C55.3237 76.5823 53.9829 74.7404 53.8701 73.7359C53.8552 73.5945 53.8125 73.4574 53.7444 73.3325C53.6763 73.2077 53.5842 73.0975 53.4734 73.0084C53.3626 72.9193 53.2352 72.853 53.0987 72.8133C52.9621 72.7737 52.819 72.7614 52.6777 72.7772C52.5364 72.7931 52.3996 72.8367 52.2752 72.9057C52.1509 72.9746 52.0413 73.0674 51.953 73.1789C51.8647 73.2903 51.7992 73.4181 51.7605 73.555C51.7218 73.6918 51.7105 73.8349 51.7273 73.9761C52.0398 76.7627 54.8091 78.457 56.9666 78.7788V80.0889C56.9666 80.3749 57.0802 80.6491 57.2824 80.8513C57.4846 81.0535 57.7588 81.1671 58.0447 81.1671C58.3307 81.1671 58.6049 81.0535 58.8071 80.8513C59.0093 80.6491 59.1229 80.3749 59.1229 80.0889V78.7154C60.3119 78.5025 61.5857 77.9911 62.5465 77.0303C63.5998 75.977 64.1189 74.5242 64.0476 72.8292C63.9268 69.958 61.3805 68.1986 60.5841 67.7173C60.5717 67.7094 60.4942 67.6612 60.4795 67.6524C60.3936 67.6035 60.3313 67.5672 60.2795 67.5372C60.1264 67.4483 60.0429 67.4005 59.8197 67.2875C59.7171 67.2354 59.6118 67.1888 59.5043 67.1478L59.1525 67.0138C59.046 66.9689 58.9371 66.9297 58.8264 66.8964C58.5958 66.8276 58.3736 66.7628 58.1876 66.7274C58.0394 66.6992 57.7977 66.6519 57.6002 66.6131L57.3553 66.5653C55.4238 66.1906 54.5414 64.7894 54.5236 63.567C54.511 62.7007 54.7796 61.5006 55.5713 60.728C56.2021 60.1134 57.1132 59.8254 58.2789 59.8726C61.4773 60.0018 62.2104 62.6927 62.2439 62.8226C62.3129 63.0988 62.4883 63.3364 62.7319 63.4837C62.9756 63.6311 63.2675 63.676 63.5442 63.6089C63.8208 63.5417 64.0597 63.3679 64.2086 63.1252C64.3576 62.8826 64.4045 62.591 64.3392 62.3139C64.0106 61.1304 63.3407 60.0699 62.413 59.2649C61.4853 58.4599 60.341 57.946 59.123 57.7874Z" fill="white" fill-opacity="0.48"/>
<path d="M59.1969 69.4017L59.1786 69.391C59.0626 69.3237 59.0148 69.2959 58.8451 69.2105C58.8097 69.1926 58.7734 69.1765 58.7364 69.1625L59.1969 69.4017ZM59.1969 69.4017C59.2192 69.4144 59.2431 69.4283 59.2688 69.4432C59.3052 69.4643 59.3454 69.4876 59.3901 69.5131L59.1969 69.4017ZM53.8933 59.0036L53.8933 59.0036C54.6716 58.2546 55.6556 57.7577 56.7168 57.5748V56.2528C56.7168 55.9006 56.8567 55.5628 57.1058 55.3137C57.3549 55.0646 57.6927 54.9247 58.0449 54.9247C58.3972 54.9247 58.735 55.0646 58.9841 55.3137C59.2331 55.5628 59.373 55.9006 59.373 56.2528V57.5716C60.5581 57.7669 61.6675 58.287 62.5768 59.0761C63.5416 59.9133 64.2384 61.0162 64.5801 62.247L64.5827 62.2565L64.5825 62.2565C64.663 62.5979 64.6051 62.9572 64.4217 63.256C64.2382 63.5549 63.944 63.7691 63.6032 63.8518C63.2624 63.9345 62.9027 63.8791 62.6026 63.6977C62.3028 63.5164 62.0868 63.224 62.0016 62.8841C61.988 62.8318 61.8077 62.1695 61.2562 61.5073C60.7081 60.8493 59.7885 60.1838 58.2688 60.1224L58.2688 60.1224C57.1486 60.077 56.313 60.3545 55.746 60.9069C55.0214 61.614 54.7615 62.7355 54.7736 63.5634C54.7896 64.6656 55.5858 65.9674 57.4029 66.3199L57.4032 66.3199L57.6481 66.3677L57.6484 66.3678C57.8459 66.4066 58.0869 66.4537 58.2343 66.4818C58.4351 66.52 58.6697 66.5888 58.8979 66.6569L58.8983 66.657C59.0162 66.6924 59.1321 66.7341 59.2455 66.7817L59.5934 66.9142L59.5934 66.9142C59.7091 66.9584 59.8224 67.0085 59.9328 67.0645M53.8933 59.0036L60.2795 67.5372L60.4051 67.321C60.4051 67.321 60.4051 67.321 60.4051 67.321C60.2489 67.2303 60.1611 67.1801 59.9328 67.0645M53.8933 59.0036L53.8922 59.0047C52.2019 60.652 52.1083 62.9476 52.1179 63.6014L53.8933 59.0036ZM59.9328 67.0645L59.8197 67.2875L59.9327 67.0644C59.9327 67.0644 59.9327 67.0645 59.9328 67.0645ZM60.7157 67.5047C60.7149 67.5042 60.7142 67.5038 60.7134 67.5033L60.5841 67.7173L60.7185 67.5065C60.7178 67.506 60.7168 67.5054 60.7157 67.5047ZM52.1179 63.6014C52.1558 66.2124 54.1378 68.3917 56.8969 68.9269L57.1378 68.9741L57.1379 68.9741C57.1746 68.9813 57.2128 68.9887 57.2517 68.9963C57.4256 69.0303 57.6131 69.067 57.7374 69.0906C57.8147 69.1057 58.0138 69.1646 58.1358 69.201C58.1658 69.21 58.1953 69.2207 58.2241 69.2331C58.2404 69.2401 58.2563 69.2467 58.2714 69.2528L58.2713 69.2528L58.2767 69.2549L58.6474 69.3961L58.6477 69.3963C58.6765 69.4072 58.7047 69.4196 58.7321 69.4335L58.7326 69.4338C58.8959 69.5159 58.9395 69.5413 59.0518 69.6065L59.0714 69.6179L59.0726 69.6185C59.0919 69.6297 59.1152 69.6431 59.1408 69.658C59.1775 69.6792 59.2191 69.7033 59.2613 69.7274L59.2986 69.7509C59.3134 69.7606 59.3293 69.7703 59.3454 69.78C59.5314 69.8923 60.0951 70.2546 60.6192 70.809C61.1462 71.3664 61.6082 72.0912 61.6435 72.9303C61.6879 73.9852 61.4171 74.7566 60.8449 75.3289C60.0387 76.135 58.6404 76.4711 57.6051 76.428C56.5383 76.3831 55.6907 75.9288 55.0947 75.366C54.4916 74.7963 54.1669 74.1363 54.1186 73.7088C54.1002 73.5349 54.0476 73.3664 53.9639 73.2129C53.88 73.059 53.7666 72.9234 53.6301 72.8136C53.4935 72.7038 53.3366 72.6221 53.1684 72.5733C53.0002 72.5244 52.824 72.5093 52.6499 72.5288C52.4758 72.5483 52.3073 72.6021 52.1541 72.687L52.2747 72.9048L52.1541 72.687C52.0008 72.7719 51.8659 72.8863 51.7571 73.0236C51.6483 73.1609 51.5677 73.3183 51.52 73.4869C51.4723 73.6551 51.4584 73.8312 51.4789 74.0048C51.6444 75.4782 52.459 76.6534 53.4976 77.4959C54.4692 78.2842 55.6489 78.792 56.7166 78.9904V80.0889C56.7166 80.4412 56.8565 80.779 57.1056 81.0281C57.3547 81.2771 57.6925 81.4171 58.0447 81.4171C58.397 81.4171 58.7348 81.2771 58.9839 81.0281C59.2329 80.779 59.3729 80.4412 59.3729 80.0889V78.9218L52.1179 63.6014Z" stroke="white" stroke-opacity="0.48" stroke-width="0.5"/>
</svg>
